<svg width="28" height="20" viewBox="0 0 28 20" fill="none" xmlns="http://www.w3.org/2000/svg">
<path d="M5.86353 0.333496H21.7357V19.6668H5.86353V0.333496Z" fill="#F2FAFF"/>
<path fill-rule="evenodd" clip-rule="evenodd" d="M5.5188 0H22.0811V20H5.5188V0ZM21.3921 19.3334V0.666788H6.20995V19.3334H21.3921Z" fill="#A3B7CC"/>
<path d="M0.341797 0.333496H5.86256V19.6668H0.341797V0.333496Z" fill="#F78F8F"/>
<path fill-rule="evenodd" clip-rule="evenodd" d="M0 0H6.21086V20H0V0ZM5.52183 19.3334V0.666788H0.691155V19.3334H5.52183Z" fill="#C74343"/>
<path d="M21.7334 0.333496H27.2542V19.6668H21.7334V0.333496Z" fill="#F78F8F"/>
<path fill-rule="evenodd" clip-rule="evenodd" d="M21.3901 0H27.601V20H21.3901V0ZM26.912 19.3334V0.666788H22.0813V19.3334H26.912Z" fill="#C74343"/>
<path d="M13.4548 15.6666V14.3332H11.3846V13.4132L9.08722 12.4272L10.003 11.9846L8.90918 10.3332H10.6662L10.4653 9.92524C10.4667 9.8219 10.4716 9.62124 10.4764 9.42524L11.947 10.1192L11.7317 7.07724L12.6916 7.54057L13.8033 5.93457L14.9082 7.54124L15.8688 7.07724L15.6528 10.1432L17.1227 9.43124L17.1427 10.3339H18.6906L17.5968 11.9852L18.5126 12.4279L16.2152 13.4132V14.3332H14.1449V15.6666H13.4548Z" fill="#F78F8F"/>
<path fill-rule="evenodd" clip-rule="evenodd" d="M12.575 7.11101L13.8062 5.33301L15.029 7.11101L16.256 6.51834L16.04 9.58301L17.4575 8.89634L17.4823 9.99967H19.3228L18.0958 11.851L19.3228 12.4437L16.5624 13.629V14.6663H14.4921V15.9997H13.1119V14.6663H11.0416V13.6297L8.28125 12.4443L9.50824 11.8517L8.28125 9.99967H10.121C10.1183 9.99234 10.1459 8.89767 10.1459 8.89767L11.564 9.56701L11.348 6.51834L12.575 7.11101ZM14.4541 7.47951L13.804 6.53484L13.1477 7.48084L12.8096 7.96951L12.2658 7.70684L12.1181 7.63551L12.2513 9.52084L12.3327 10.6715L11.2603 10.1655L10.8601 9.97684L11.1617 10.6662H10.121H9.542L10.0892 11.4922L10.5026 12.1162L9.8974 12.4082L11.3218 13.0195L11.7317 13.1955V13.6288V13.9995H13.1119H13.802H14.4921H15.8722V13.6295V13.1962L16.2815 13.0195L17.7058 12.4082L17.1006 12.1162L17.514 11.4922L18.0612 10.6662H17.4822H16.8073L16.7928 10.0142L16.7915 9.96484L16.3491 10.1788L15.2691 10.7015L15.3512 9.53751L15.4851 7.63551L15.3374 7.70684L14.7916 7.97017L14.4541 7.47951Z" fill="#C74343"/>
</svg>
