<svg width="27" height="20" viewBox="0 0 27 20" fill="none" xmlns="http://www.w3.org/2000/svg">
<path d="M0.333252 0.333496H26.3333V19.6668H0.333252V0.333496Z" fill="#99C99E"/>
<path fill-rule="evenodd" clip-rule="evenodd" d="M0 0H26.6667V20H0V0ZM26 19.3333V0.666667H0.666667V19.3333H26Z" fill="#5E9C76"/>
<path d="M0 6.6665H26.6667V9.99984H0V6.6665Z" fill="#FFEEA3"/>
<path fill-rule="evenodd" clip-rule="evenodd" d="M0 6.6665H26.6667V9.99984H0V6.6665ZM26 9.33333V7.33333H0.666667V9.33333H26Z" fill="#F5C276"/>
<path d="M0 10H26.6667V13.3333H0V10Z" fill="#4B6477"/>
<path fill-rule="evenodd" clip-rule="evenodd" d="M0 10H26.6667V13.3333H0V10ZM26 12.6667V10.6667H0.666667V12.6667H26Z" fill="#36404D"/>
<path d="M0 8.6665H26.6667V11.3332H0V8.6665Z" fill="#F2FAFF"/>
<path fill-rule="evenodd" clip-rule="evenodd" d="M0 8.6665H26.6667V11.3332H0V8.6665ZM26 10.6667V9.33333H0.666667V10.6667H26Z" fill="#A3B7CC"/>
<path d="M10 20L10 -1.90735e-06L13.3333 -2.05305e-06L13.3333 20L10 20Z" fill="#FFEEA3"/>
<path fill-rule="evenodd" clip-rule="evenodd" d="M10 20L10 0L13.3333 -1.45705e-07L13.3333 20L10 20ZM12.6667 0.666668L10.6667 0.666668L10.6667 19.3333L12.6667 19.3333L12.6667 0.666668Z" fill="#F5C276"/>
<path d="M13.3328 20L13.3328 0L16.6661 -1.45705e-07L16.6661 20L13.3328 20Z" fill="#4B6477"/>
<path fill-rule="evenodd" clip-rule="evenodd" d="M13.332 20L13.332 0L16.6654 -1.45705e-07L16.6654 20L13.332 20ZM15.9987 0.666668L13.9987 0.666668L13.9987 19.3333L15.9987 19.3333L15.9987 0.666668Z" fill="#36404D"/>
<path d="M12 20L12 -1.90735e-06L14.6667 -2.02391e-06L14.6667 20L12 20Z" fill="#F2FAFF"/>
<path fill-rule="evenodd" clip-rule="evenodd" d="M12 20L12 0L14.6667 -1.16564e-07L14.6667 20L12 20ZM14 0.666668L12.6667 0.666668L12.6667 19.3333L14 19.3333L14 0.666668Z" fill="#A3B7CC"/>
<path d="M13.3333 15C10.5759 15 8.33325 12.7573 8.33325 10C8.33325 7.24267 10.5759 5 13.3333 5C16.0906 5 18.3333 7.24267 18.3333 10C18.3333 12.7573 16.0906 15 13.3333 15Z" fill="#F78F8F"/>
<path fill-rule="evenodd" clip-rule="evenodd" d="M8 9.99984C8 7.0545 10.388 4.6665 13.3333 4.6665C16.2787 4.6665 18.6667 7.0545 18.6667 9.99984C18.6667 12.9452 16.2787 15.3332 13.3333 15.3332C10.388 15.3332 8 12.9452 8 9.99984ZM18 10C18 7.42667 15.9067 5.33333 13.3333 5.33333C10.76 5.33333 8.66667 7.42667 8.66667 10C8.66667 12.5733 10.76 14.6667 13.3333 14.6667C15.9067 14.6667 18 12.5733 18 10Z" fill="#C74343"/>
<path d="M13.3378 6L13.4788 6.41817H13.9353L13.566 6.67635L13.7071 7.09452L13.3378 6.83633L12.9685 7.09452L13.1095 6.67635L12.7402 6.41817H13.1968L13.3378 6Z" fill="#99C99E"/>
<path d="M15.4472 7.50186L15.0779 7.76043L15.2189 7.34226L14.8496 7.08369H15.3061L15.4472 6.66553L15.5882 7.08369H16.0447L15.6754 7.34226L15.8164 7.76043L15.4472 7.50186Z" fill="#99C99E"/>
<path d="M16.735 9.19815L16.3657 9.45633L16.5067 9.03855L16.1375 8.77998H16.594L16.735 8.36182L16.876 8.77998H17.3325L16.9633 9.03855L17.1043 9.45633L16.735 9.19815Z" fill="#99C99E"/>
<path d="M16.735 11.3799L16.3657 11.6385L16.5067 11.2203L16.1375 10.9621H16.594L16.735 10.5439L16.876 10.9621H17.3325L16.9633 11.2203L17.1043 11.6385L16.735 11.3799Z" fill="#99C99E"/>
<path d="M15.4472 13.0757L15.0779 13.3343L15.2189 12.9161L14.8496 12.6575H15.3061L15.4472 12.2397L15.5882 12.6575H16.0447L15.6754 12.9161L15.8164 13.3343L15.4472 13.0757Z" fill="#99C99E"/>
<path d="M13.3378 13.7421L12.9685 14.0003L13.1095 13.5821L12.7402 13.3239H13.1968L13.3378 12.9058L13.4788 13.3239H13.9353L13.566 13.5821L13.7071 14.0003L13.3378 13.7421Z" fill="#99C99E"/>
<path d="M11.2182 13.0757L10.8489 13.3343L10.9899 12.9161L10.6206 12.6575H11.0771L11.2182 12.2397L11.3592 12.6575H11.8157L11.4464 12.9161L11.5874 13.3343L11.2182 13.0757Z" fill="#99C99E"/>
<path d="M9.93031 11.3799L9.56103 11.6385L9.70205 11.2203L9.33276 10.9621H9.78929L9.93031 10.5439L10.0713 10.9621H10.5279L10.1586 11.2203L10.2996 11.6385L9.93031 11.3799Z" fill="#99C99E"/>
<path d="M9.93031 9.19815L9.56103 9.45633L9.70205 9.03855L9.33276 8.77998H9.78929L9.93031 8.36182L10.0713 8.77998H10.5279L10.1586 9.03855L10.2996 9.45633L9.93031 9.19815Z" fill="#99C99E"/>
<path d="M11.2182 7.50186L10.8489 7.76043L10.9899 7.34226L10.6206 7.08369H11.0771L11.2182 6.66553L11.3592 7.08369H11.8157L11.4464 7.34226L11.5874 7.76043L11.2182 7.50186Z" fill="#99C99E"/>
<path d="M13.3378 6L13.4788 6.41817H13.9353L13.566 6.67635L13.7071 7.09452L13.3378 6.83633L12.9685 7.09452L13.1095 6.67635L12.7402 6.41817H13.1968L13.3378 6Z" fill="#99C99E"/>
<path d="M14.5574 11.8199C14.4876 11.8171 14.4479 11.7788 14.4247 11.7132C14.3918 11.6215 14.3098 11.5996 14.2249 11.6024C14.1333 11.6051 14.0498 11.6311 14.0074 11.7269C13.991 11.7652 14.0115 11.824 13.9637 11.8404C13.9254 11.8541 13.8788 11.8431 13.8351 11.8431C13.8173 11.8431 13.7981 11.8445 13.7804 11.8445C13.6531 11.8336 13.5109 11.8719 13.4219 11.7364C13.4206 11.7351 13.4178 11.7337 13.4165 11.7323C13.3864 11.7187 13.385 11.7009 13.4014 11.6735C13.4466 11.5942 13.4343 11.4847 13.5341 11.4314C13.5574 11.4191 13.5656 11.378 13.5765 11.3479C13.6039 11.2768 13.6121 11.2016 13.6053 11.1263C13.5998 11.0566 13.6189 10.9964 13.6531 10.9389C13.6641 10.8992 13.6955 10.8746 13.7202 10.8445C13.7995 10.7898 13.8419 10.7091 13.8775 10.6243C13.9637 10.5244 14.002 10.4013 14.0416 10.2795C14.1511 9.94712 14.1442 9.6065 14.0923 9.26587C14.0485 8.98133 13.9404 8.71731 13.805 8.46424C13.7913 8.43825 13.7776 8.40815 13.7858 8.36985C13.846 8.3931 13.9007 8.44098 13.9609 8.42183C14.0704 8.389 14.1032 8.44782 14.1237 8.53401C14.1237 8.53674 14.1306 8.53811 14.1347 8.53948C14.1702 8.47245 14.1935 8.40131 14.2058 8.32607C14.2345 8.1496 14.1812 8.06205 14.0143 8.01281C13.9814 8.00323 13.9664 7.98682 13.9582 7.95398C13.9267 7.83223 13.8488 7.75016 13.7311 7.71048C13.5054 7.63388 13.292 7.65303 13.0977 7.80214C12.8966 7.95535 12.7325 8.15508 12.4945 8.26725C12.5601 8.29735 12.6244 8.27956 12.6942 8.29324C12.623 8.34659 12.5533 8.37942 12.4726 8.39447C12.4904 8.43141 12.515 8.45603 12.5437 8.47381C12.593 8.50528 12.5711 8.52169 12.5369 8.54358C12.4739 8.58325 12.4069 8.61472 12.3289 8.63387C12.359 8.67764 12.3919 8.70911 12.4302 8.73373C12.4479 8.74467 12.4603 8.75562 12.4397 8.77477C12.3837 8.79803 12.3317 8.83086 12.2633 8.8377C12.292 8.88558 12.3262 8.91841 12.3672 8.94166C12.4151 8.96902 12.3973 8.9827 12.3618 9.00185C12.3166 9.02648 12.266 9.04016 12.2127 9.05657C12.266 9.13181 12.3317 9.17969 12.4165 9.20295C12.5027 9.22757 12.5847 9.20021 12.6723 9.17832C12.6504 9.21389 12.6326 9.24262 12.6148 9.27134C12.5984 9.29597 12.5834 9.32059 12.567 9.34658C12.541 9.3671 12.5287 9.3972 12.5122 9.42319C12.3399 9.7091 12.2072 10.0128 12.1196 10.3356C12.0622 10.5463 12.0157 10.7611 12.0471 10.9827C12.0704 11.1468 12.0335 11.3083 12.0198 11.4697C12.0075 11.6106 12.0006 11.7487 12.0444 11.8883C12.0649 11.839 12.0854 11.7884 12.106 11.7392C12.1169 11.7228 12.1265 11.7063 12.147 11.6749C12.1497 11.7583 12.1716 11.8212 12.1251 11.8896C12.0649 11.9745 12.0909 12.0675 12.173 12.1222C12.1935 12.1359 12.1962 12.1537 12.2003 12.1742C12.2154 12.2508 12.2222 12.3383 12.277 12.3903C12.3508 12.4587 12.3878 12.5408 12.4261 12.6284C12.4479 12.679 12.4917 12.6776 12.53 12.6338C12.5601 12.5983 12.5724 12.5531 12.5957 12.5148C12.6395 12.4437 12.7284 12.4122 12.764 12.3329C12.7667 12.3274 12.7858 12.3329 12.7968 12.3301C12.8611 12.311 12.9281 12.337 12.9938 12.3206C13.0581 12.3315 13.1251 12.3219 13.188 12.3288C13.3098 12.3424 13.4028 12.2973 13.4835 12.2207C13.5232 12.1824 13.5628 12.1701 13.6162 12.1701C13.8693 12.1715 14.121 12.1701 14.3741 12.1482C14.411 12.1455 14.4384 12.1304 14.4616 12.1017C14.5163 12.0347 14.5574 11.958 14.5943 11.8801C14.5998 11.8486 14.6052 11.8226 14.5574 11.8199Z" fill="#4E4E4E"/>
<path d="M14.5232 11.8407C14.4589 11.8324 14.4179 11.7941 14.3987 11.7298C14.3837 11.6779 14.344 11.6491 14.292 11.6341C14.1484 11.5931 14.039 11.6587 14.0061 11.8065C13.9993 11.8393 13.987 11.8694 13.9473 11.8694C13.8857 11.868 13.8242 11.8721 13.764 11.8666C13.7435 11.8653 13.723 11.8625 13.7038 11.8571C13.6505 11.8571 13.5971 11.8571 13.5424 11.8571C13.5848 12.0089 13.5834 12.0335 13.541 12.1279C13.5424 12.1307 13.5451 12.132 13.5479 12.1348C13.5588 12.143 13.5725 12.143 13.5848 12.1416C13.7941 12.1389 14.0048 12.1293 14.2113 12.1375C14.4069 12.1457 14.4808 12.0349 14.5478 11.8913C14.5615 11.8625 14.5684 11.8461 14.5232 11.8407Z" fill="#C74343"/>
<path d="M12.8313 11.8779C12.6685 11.8026 12.4989 11.8574 12.3293 11.8409C12.3388 11.8751 12.3662 11.8861 12.3621 11.9134C12.4236 11.9928 12.3648 12.053 12.321 12.1159C12.4756 12.1364 12.6261 12.1323 12.7752 12.1337C12.845 12.1351 12.9106 12.0844 12.923 12.0325C12.9366 11.9613 12.912 11.9148 12.8313 11.8779Z" fill="#C74343"/>
<path d="M12.3706 11.9586C12.3692 11.9436 12.3665 11.9271 12.3651 11.9121C12.3542 11.9012 12.3432 11.8916 12.3309 11.8806C12.2776 11.8328 12.2092 11.8287 12.1572 11.8711C12.1066 11.9121 12.0915 11.9791 12.1216 12.038C12.1517 12.0954 12.216 12.1241 12.2762 12.1064C12.3419 12.0858 12.3774 12.0284 12.3706 11.9586Z" fill="#C74343"/>
<path d="M13.9325 8.77981C13.9271 8.76476 13.9175 8.75245 13.9065 8.73193C13.8436 8.82632 13.767 8.85505 13.6644 8.79896C13.6329 8.78118 13.5974 8.82632 13.5618 8.81812C13.4975 8.8058 13.518 8.85916 13.5071 8.88651C13.4948 8.91661 13.4811 8.95081 13.451 8.96175C13.3963 8.98091 13.3894 9.01647 13.4018 9.06435C13.4113 9.15464 13.4086 9.24629 13.4018 9.33658C13.3894 9.43507 13.3894 9.53357 13.3717 9.63206C13.3717 9.64437 13.3662 9.65942 13.3634 9.67173C13.3279 9.94122 13.2321 10.1902 13.1199 10.4351C13.1063 10.4638 13.0912 10.4911 13.0762 10.5199C13.1856 10.6252 13.2048 10.7593 13.1993 10.9002C13.1966 10.9699 13.1924 11.0383 13.2102 11.1081C13.2239 11.1628 13.228 11.2189 13.2143 11.2832C13.2923 11.26 13.3361 11.1957 13.4004 11.1683C13.4866 11.0917 13.5604 11.0028 13.6562 10.9371C13.6671 10.8974 13.6986 10.8728 13.7232 10.8427C13.7752 10.7702 13.8286 10.6963 13.8805 10.6238C13.9339 10.4966 14.0037 10.3762 14.0379 10.2408C14.1664 9.74287 14.1295 9.25587 13.9325 8.77981Z" fill="#AD48FD"/>
<path d="M12.7904 8.23906C12.8438 8.2158 12.8793 8.22401 12.9258 8.25547C13.1666 8.41963 13.4306 8.44972 13.7083 8.37996C13.748 8.37038 13.7822 8.35944 13.7425 8.30609C13.7124 8.26642 13.7247 8.22264 13.7658 8.19255C13.7808 8.1816 13.7918 8.17339 13.7931 8.15151C13.7972 8.01744 13.8082 8.0065 13.9423 7.99009C13.9231 7.88475 13.8739 7.8013 13.7767 7.75479C13.5592 7.6522 13.3417 7.6563 13.1406 7.79446C12.9395 7.934 12.7795 8.12551 12.5579 8.25958C12.6481 8.27873 12.722 8.26778 12.7904 8.23906ZM13.4211 7.94221C13.4853 7.90664 13.551 7.90527 13.6167 7.93947C13.6399 7.95178 13.6604 7.9682 13.6577 7.99692C13.655 8.02976 13.6399 8.05301 13.603 8.05438C13.5428 8.09952 13.4799 8.08721 13.4197 8.05438C13.3663 8.02428 13.3663 7.97367 13.4211 7.94221Z" fill="#AD48FD"/>
<path d="M13.0785 8.70557C13.0361 8.71377 13.0265 8.76029 12.9868 8.76439C12.954 8.815 12.9075 8.85057 12.8514 8.87246H12.85C12.7447 8.96411 12.6229 9.00789 12.4834 8.98874C12.456 8.98463 12.4314 8.97643 12.4054 8.99421C12.3575 9.02567 12.3056 9.04756 12.2454 9.06945C12.3056 9.13921 12.374 9.18162 12.4629 9.18983C12.5573 9.19804 12.6393 9.16931 12.7173 9.1269C12.7324 9.11459 12.7488 9.10502 12.7679 9.09818C12.7734 9.09544 12.7775 9.0927 12.783 9.08997V9.0886H12.7843C12.7967 9.08039 12.8103 9.07218 12.8226 9.06398C12.8226 9.06398 12.8226 9.06398 12.8226 9.06261C12.8226 9.06261 12.8226 9.06261 12.824 9.06261C12.8869 9.00789 12.9499 8.95454 13.0101 8.89571C13.062 8.84784 13.0962 8.78628 13.0785 8.70557Z" fill="#AD48FD"/>
<path d="M12.5234 8.77635C12.4933 8.76951 12.4673 8.7654 12.4399 8.78182C12.4386 8.78182 12.4386 8.78319 12.4372 8.78319C12.3962 8.81739 12.3428 8.8297 12.2949 8.85159C12.3825 8.96239 12.5029 8.99796 12.6424 8.96102C12.7149 8.94187 12.7737 8.89399 12.8462 8.87211C12.8462 8.87211 12.8462 8.87211 12.8476 8.87074C12.8845 8.82559 12.9297 8.79003 12.9816 8.76404C12.9816 8.76404 12.983 8.76404 12.983 8.76267C12.9912 8.73257 13.0186 8.71889 13.0391 8.69974C13.0842 8.6587 13.1171 8.61082 13.1294 8.552C13.1335 8.53285 13.1444 8.50549 13.1061 8.50412C13.1048 8.50686 13.102 8.50959 13.1007 8.51233C13.0719 8.55884 13.0254 8.58757 12.983 8.6204C13.0076 8.56841 13.0528 8.53558 13.0993 8.50686C13.0993 8.50549 13.0993 8.50412 13.0979 8.50412C13.0993 8.50412 13.102 8.50412 13.1034 8.50412C13.1034 8.50412 13.1048 8.50412 13.1048 8.50275C13.1089 8.4795 13.1239 8.46855 13.1431 8.46034C13.1431 8.46034 13.1444 8.46034 13.1444 8.45898C13.1444 8.43572 13.1718 8.42341 13.1663 8.40015C13.1225 8.36869 13.0979 8.41931 13.0637 8.42204H13.0624L13.0637 8.42067C13.0911 8.38921 13.0925 8.37006 13.0446 8.35091C12.9926 8.33039 12.9447 8.29756 12.8996 8.26472C12.8681 8.24284 12.8435 8.2401 12.8065 8.25241C12.6998 8.29208 12.6191 8.381 12.5083 8.40152C12.507 8.4111 12.507 8.41383 12.507 8.4152C12.5111 8.42067 12.5138 8.42751 12.5179 8.43162C12.6205 8.53558 12.7395 8.552 12.8749 8.50959C12.942 8.48907 12.9953 8.44119 13.0624 8.42067C12.9392 8.52601 12.8024 8.57662 12.6397 8.53148C12.6191 8.52601 12.6 8.51233 12.5767 8.53011C12.5111 8.57936 12.4372 8.61629 12.3565 8.64502C12.4659 8.76814 12.5918 8.79687 12.7477 8.74078C12.7956 8.723 12.8353 8.69016 12.8859 8.68059C12.8859 8.68059 12.8873 8.68059 12.8873 8.68196C12.7819 8.76814 12.6615 8.80918 12.5234 8.77635Z" fill="#AD48FD"/>
<path d="M12.8224 9.06664C12.8224 9.06307 12.8224 9.06307 12.8224 9.06664C12.8188 9.06307 12.8224 9.06664 12.8224 9.06664Z" fill="#AD48FD"/>
<path d="M12.7817 9.08838V9.09076C12.7841 9.09076 12.7841 9.09076 12.7817 9.08838C12.7841 9.08838 12.7841 9.08838 12.7817 9.08838C12.7841 9.08838 12.7841 9.08838 12.7817 9.08838Z" fill="#AD48FD"/>
<path d="M13.1102 8.50391C13.1088 8.50391 13.1061 8.50391 13.1047 8.50391C13.1047 8.50527 13.1047 8.50664 13.1061 8.50664C13.1075 8.50664 13.1088 8.50527 13.1102 8.50391Z" fill="#AD48FD"/>
<path d="M13.0501 12.1688C13.0474 12.1497 13.0624 12.1387 13.0706 12.1251C13.1172 12.0444 13.1158 11.9636 13.0747 11.8816C13.0665 11.8652 13.0488 11.8528 13.0501 11.831C13.0501 11.8296 13.0501 11.8296 13.0501 11.8282C13.0105 11.7981 12.9694 11.7667 12.9297 11.7366C12.9024 11.716 12.8805 11.7037 12.8641 11.7502C12.8504 11.7885 12.8217 11.8159 12.7683 11.82C12.8135 11.8433 12.8518 11.8597 12.886 11.8816C12.979 11.9418 12.9776 12.0594 12.8832 12.1169C12.8559 12.1333 12.8271 12.1456 12.797 12.1593C12.7218 12.1935 12.6862 12.2386 12.7109 12.2769C12.7464 12.3303 12.7984 12.307 12.8477 12.2974C12.9297 12.2796 12.9858 12.2181 13.0501 12.1716C13.0501 12.1702 13.0501 12.1688 13.0501 12.1688Z" fill="#F5D976"/>
<path d="M13.3602 12.1506C13.4382 12.0439 13.4163 11.9372 13.3506 11.8346C13.3506 11.8333 13.3492 11.8333 13.3492 11.8319C13.3137 11.7909 13.2658 11.7662 13.2234 11.7334C13.1919 11.7101 13.1659 11.7088 13.1454 11.7457C13.1509 11.7512 13.155 11.758 13.1605 11.7635C13.1673 11.7717 13.1728 11.7799 13.181 11.7868C13.3109 11.9263 13.3068 12.0904 13.1659 12.219C13.1317 12.2505 13.0921 12.2751 13.0442 12.3093C13.1878 12.3134 13.285 12.2519 13.3602 12.1506Z" fill="#F5D976"/>
<path d="M13.1871 12.1644C13.2883 12.0385 13.2842 11.8853 13.1296 11.7622C13.1269 11.7663 13.0571 11.7841 13.0229 11.7745C13.0284 11.7978 13.0544 11.8046 13.0517 11.8265C13.0517 11.8279 13.0517 11.8292 13.0503 11.8306C13.0503 11.8306 13.0503 11.8306 13.0517 11.832C13.0544 11.8333 13.0585 11.8347 13.0612 11.8361C13.1488 11.9305 13.1488 12.0741 13.0612 12.1685C13.0585 12.1699 13.0544 12.1712 13.0517 12.1726L13.0503 12.174C13.0503 12.174 13.0503 12.174 13.0503 12.1753C13.0257 12.2424 12.9573 12.2629 12.8984 12.3121C12.934 12.3108 12.9805 12.308 12.9805 12.308L12.9833 12.3067C12.9833 12.3012 13.1337 12.2314 13.1871 12.1644Z" fill="#F5D976"/>
<path d="M13.4266 11.7632C13.3883 11.7331 13.3541 11.7195 13.3199 11.7701C13.3309 11.7837 13.4554 12.1107 13.2214 12.3091C13.3623 12.3036 13.4526 12.2297 13.5279 12.1285C13.5867 11.978 13.5539 11.8617 13.4266 11.7632Z" fill="#F5D976"/>
<path d="M13.9502 8.02371C13.8941 8.01414 13.8394 8.00867 13.8148 8.07706C13.7943 8.13589 13.8161 8.20155 13.8832 8.22891C14.0036 8.27679 14.0788 8.36434 14.1226 8.48609C14.1513 8.43821 14.1622 8.38896 14.1718 8.34108C14.2088 8.1441 14.1486 8.05791 13.9502 8.02371Z" fill="#F5D976"/>
<path d="M13.9861 8.31905C13.9464 8.27527 13.8848 8.26843 13.8397 8.23287C13.8151 8.21372 13.7959 8.18088 13.7604 8.21508C13.7262 8.25065 13.7357 8.28622 13.7617 8.31905C13.8082 8.37787 13.8739 8.40113 13.9423 8.40797C13.9765 8.4066 14.0134 8.40934 14.0271 8.38198C14.0408 8.35325 14.0039 8.3382 13.9861 8.31905Z" fill="#F5D976"/>
<path d="M12.4145 11.239C12.3817 11.2349 12.368 11.2828 12.3488 11.3102C12.3365 11.3279 12.3365 11.3485 12.3365 11.369C12.3324 11.4593 12.3283 11.5509 12.3256 11.6412C12.3187 11.8163 12.3187 11.8163 12.4911 11.8163C12.4979 11.8163 12.5048 11.8163 12.5116 11.8163C12.5622 11.8163 12.6115 11.8163 12.6621 11.8163C12.6895 11.8163 12.699 11.8095 12.6881 11.7794C12.6689 11.7233 12.6511 11.6672 12.6375 11.6111C12.6293 11.5742 12.6224 11.5482 12.5732 11.555C12.539 11.5591 12.5185 11.5277 12.4993 11.5017C12.461 11.4456 12.4501 11.3813 12.4336 11.317C12.4268 11.2896 12.446 11.2418 12.4145 11.239Z" fill="#53A372"/>
<path d="M12.475 12.1432C12.4449 12.1432 12.4162 12.1445 12.3861 12.1432C12.3546 12.1418 12.3396 12.1555 12.3437 12.1883C12.3601 12.3183 12.3642 12.451 12.4121 12.5754C12.4217 12.6028 12.4299 12.637 12.4641 12.6411C12.4983 12.6438 12.5147 12.6124 12.5284 12.5878C12.5735 12.5084 12.5968 12.4209 12.62 12.3319C12.6652 12.15 12.6652 12.15 12.475 12.1432Z" fill="#53A372"/>
<path d="M12.7307 11.4333C12.6869 11.4127 12.6759 11.4456 12.6623 11.4784C12.6253 11.5755 12.6582 11.6617 12.7101 11.741C12.7553 11.8094 12.8141 11.8012 12.8497 11.726C12.8921 11.6343 12.8497 11.555 12.8073 11.477C12.7922 11.451 12.7813 11.4073 12.7307 11.4333Z" fill="#53A372"/>
<path d="M13.0821 11.43C13.1423 11.4341 13.1615 11.3835 13.1738 11.337C13.1847 11.2932 13.1902 11.2494 13.1902 11.2043C13.1861 11.1591 13.1697 11.114 13.1629 11.0688C13.1013 11.1441 13.0904 11.1455 13.0124 11.1044C12.9795 11.1783 12.9864 11.2563 12.9932 11.3315C12.9987 11.3766 13.0261 11.4273 13.0821 11.43Z" fill="#53A372"/>
<path d="M12.6676 12.1883C12.6485 12.269 12.6307 12.3497 12.6074 12.4468C12.6703 12.414 12.7223 12.362 12.7032 12.3237C12.6717 12.2553 12.6854 12.2115 12.7305 12.1623C12.6977 12.1527 12.6758 12.1568 12.6676 12.1883Z" fill="#53A372"/>
<path d="M12.2326 12.133C12.1875 12.1344 12.2135 12.1713 12.2162 12.1904C12.2244 12.2561 12.2477 12.3177 12.2778 12.3765C12.2915 12.4025 12.3051 12.4339 12.3462 12.4326C12.338 12.3464 12.3325 12.2616 12.3229 12.1768C12.3161 12.1152 12.2668 12.1303 12.2326 12.133Z" fill="#53A372"/>
<path d="M13.1348 11.4571C13.1047 11.4584 13.1047 11.4872 13.1061 11.5091C13.1088 11.5802 13.0992 11.65 13.0637 11.7129C13.0568 11.7252 13.0486 11.7375 13.0637 11.7485C13.076 11.758 13.0896 11.7539 13.102 11.7471C13.1485 11.7211 13.1704 11.6773 13.1799 11.6404C13.1772 11.5857 13.1758 11.546 13.1704 11.505C13.1676 11.4844 13.1635 11.4557 13.1348 11.4571Z" fill="#53A372"/>
<path d="M13.6771 8.58254C13.7318 8.56612 13.766 8.52919 13.7647 8.469C13.766 8.41702 13.7551 8.38555 13.6935 8.40744C13.6552 8.42112 13.6142 8.42522 13.5745 8.43343C13.5143 8.44574 13.4979 8.48131 13.5335 8.53329C13.5677 8.58254 13.6197 8.59896 13.6771 8.58254Z" fill="#53A372"/>
<path d="M13.6115 8.60251C13.5663 8.5984 13.5882 8.62986 13.5978 8.64628C13.6292 8.69963 13.7182 8.71605 13.7729 8.68048C13.8385 8.63807 13.8495 8.56967 13.792 8.4917C13.7619 8.58472 13.6976 8.60935 13.6115 8.60251Z" fill="#53A372"/>
<path d="M13.856 8.61035C13.8123 8.68285 13.7617 8.73073 13.6768 8.71979C13.6632 8.71842 13.644 8.70337 13.6344 8.72253C13.6262 8.73894 13.6413 8.75262 13.6522 8.76356C13.6563 8.76904 13.6618 8.77314 13.6659 8.77724C13.7042 8.81008 13.7671 8.81555 13.8136 8.78956C13.8396 8.77588 13.856 8.75672 13.8656 8.7321C13.8779 8.70201 13.8752 8.66097 13.856 8.61035Z" fill="#53A372"/>
<path d="M13.3567 8.9283C13.365 8.95156 13.3745 8.9625 13.3855 8.96524C13.3992 8.96797 13.4156 8.95977 13.4334 8.94472C13.4621 8.92146 13.4758 8.89137 13.4758 8.85717C13.4758 8.8517 13.4758 8.84759 13.4744 8.84212C13.4689 8.79971 13.4388 8.77099 13.3992 8.7874C13.3581 8.80382 13.3171 8.80655 13.261 8.81066C13.3075 8.84896 13.3403 8.88316 13.3567 8.9283Z" fill="#53A372"/>
<path d="M13.1591 8.76428C13.1755 8.76154 13.1728 8.74786 13.1687 8.73692C13.1468 8.68767 13.1495 8.63979 13.1728 8.59191C13.1782 8.5796 13.1741 8.57002 13.1632 8.56318C13.1536 8.55771 13.144 8.55908 13.1413 8.57002C13.1276 8.61517 13.092 8.6521 13.0852 8.70409C13.0907 8.71913 13.092 8.73829 13.1016 8.75197C13.1167 8.77112 13.1399 8.76838 13.1591 8.76428Z" fill="#53A372"/>
<path d="M12.6692 10.404C12.6706 10.4026 12.6719 10.4013 12.6733 10.3999C12.6761 10.3985 12.6774 10.3958 12.6802 10.3944C12.6829 10.3876 12.687 10.3821 12.6938 10.3794C12.7144 10.3548 12.7294 10.3274 12.7403 10.2987C12.7417 10.2946 12.7417 10.2918 12.7431 10.2877C12.7595 10.2234 12.7896 10.1646 12.8142 10.103C12.8197 10.088 12.8279 10.0757 12.8388 10.0661C12.8416 10.062 12.8429 10.0593 12.8457 10.0552C12.8498 10.0483 12.8539 10.0429 12.8594 10.036C12.8594 10.0292 12.8621 10.0182 12.8607 10.0169C12.7581 9.98677 12.7568 9.98677 12.7554 9.88007C12.7554 9.8445 12.7362 9.86091 12.7226 9.85955C12.7226 9.85955 12.7226 9.85955 12.7226 9.86091C12.7226 9.86091 12.7226 9.86091 12.7226 9.85955C12.6145 9.98677 12.568 10.14 12.5488 10.3014C12.5393 10.4054 12.5762 10.4341 12.6692 10.404Z" fill="#53A372"/>
<path d="M12.1877 10.4901C12.1754 10.3409 12.226 10.2082 12.3054 10.0865C12.3683 9.98937 12.3751 9.87173 12.4257 9.76913C12.4805 9.65832 12.5324 9.54889 12.62 9.45997C12.6898 9.35737 12.7212 9.23562 12.7883 9.13029C12.7965 9.11797 12.7883 9.10977 12.7746 9.1084C12.698 9.1426 12.672 9.22878 12.6036 9.27119C12.5872 9.29581 12.5721 9.32043 12.5557 9.34643C12.5324 9.43671 12.4709 9.50648 12.4285 9.58582C12.2438 9.93739 12.1056 10.304 12.055 10.7007C12.0482 10.7568 12.0496 10.8143 12.0523 10.8717C12.0728 10.7349 12.1193 10.6077 12.1877 10.4901Z" fill="#53A372"/>
<path d="M12.9428 10.4901C12.9404 10.4877 12.938 10.4877 12.938 10.4854C12.9404 10.4877 12.9428 10.4901 12.9428 10.4901Z" fill="#53A372"/>
<path d="M12.2507 11.8252C12.2876 11.8279 12.3109 11.8183 12.3095 11.7732C12.3082 11.6774 12.3109 11.5817 12.3109 11.4859C12.3109 11.449 12.3287 11.4121 12.315 11.3724C12.274 11.3929 12.2712 11.4408 12.2329 11.4558C12.289 11.3655 12.3369 11.2684 12.4203 11.1987V11.1973C12.4231 11.1932 12.4244 11.1891 12.4272 11.1863C12.4313 11.1795 12.434 11.174 12.4381 11.1672C12.4627 11.1248 12.4887 11.0865 12.5503 11.0673C12.5517 11.0673 12.5544 11.066 12.5558 11.0646C12.6036 11.0468 12.6392 10.9853 12.6802 10.9442L12.6843 10.9415C12.6939 10.9264 12.7035 10.91 12.7144 10.8963C12.9552 10.5858 13.1248 10.2383 13.2507 9.86625C13.2753 9.79101 13.2972 9.7144 13.315 9.6378C13.3314 9.5694 13.3451 9.501 13.3574 9.4326C13.3629 9.40524 13.367 9.37925 13.3724 9.35189C13.3738 9.34642 13.3738 9.34095 13.3752 9.33684C13.3738 9.33 13.3724 9.31632 13.3697 9.31222C13.367 9.30948 13.3615 9.31085 13.3533 9.32316C13.3218 9.36967 13.2863 9.41482 13.2698 9.4709C13.2438 9.55709 13.2042 9.63506 13.1495 9.70483C13.1194 9.74176 13.0852 9.79101 13.0373 9.78417C12.9661 9.77459 12.9607 9.81427 12.9525 9.86078C12.9443 9.90592 12.9347 9.9497 12.9292 9.99484C12.9251 10.0413 12.9292 10.0851 13.0113 10.0673H13.0127C13.0127 10.0673 13.0113 10.0673 13.0113 10.0687C12.9374 10.1139 12.9237 10.1043 12.9032 10.0085C12.8827 10.014 12.8813 10.0345 12.8677 10.0468C12.8649 10.0509 12.8635 10.055 12.8608 10.0605C12.791 10.1959 12.7281 10.3327 12.7322 10.49C12.7336 10.5283 12.7295 10.5735 12.7733 10.5899C12.8157 10.605 12.8444 10.5721 12.8718 10.5448C12.8923 10.5242 12.9142 10.5037 12.9347 10.4832C13.0127 10.3478 13.0865 10.2096 13.1098 10.0509C13.1125 10.0331 13.1153 10.0154 13.1153 9.99621C13.1153 9.98389 13.1207 9.96885 13.1084 9.9579C13.0756 9.97842 13.0701 10.0236 13.0168 10.0455C13.1112 9.91823 13.1768 9.79101 13.237 9.66105C13.2329 9.72535 13.1987 9.7787 13.17 9.83342C13.1454 9.8813 13.1344 9.92781 13.133 9.98253C13.1303 10.0701 13.1153 10.1535 13.0865 10.2329C13.066 10.2917 13.0386 10.3478 13.0044 10.4011C12.9853 10.4312 12.9648 10.4613 12.9429 10.49C12.9415 10.4887 12.9415 10.4887 12.9402 10.4873C12.9415 10.4887 12.9429 10.4887 12.9429 10.49C12.9429 10.4928 12.9429 10.4955 12.9402 10.4969C12.9319 10.5037 12.9237 10.5106 12.9155 10.5174C12.9142 10.5188 12.9114 10.5215 12.9101 10.5229C12.9019 10.5325 12.8923 10.542 12.8841 10.5502C12.8827 10.5516 12.8813 10.553 12.88 10.5543C12.7993 10.6487 12.761 10.7691 12.6926 10.8717C12.6857 10.8827 12.6761 10.8922 12.6542 10.8963C12.6707 10.8703 12.6884 10.8444 12.7035 10.8184C12.7199 10.7883 12.735 10.7582 12.7514 10.7281C12.7774 10.6788 12.8047 10.6392 12.7363 10.5872C12.6789 10.5434 12.7076 10.4613 12.7131 10.3888C12.6994 10.397 12.6871 10.4052 12.6761 10.4121C12.672 10.4148 12.6679 10.4162 12.6652 10.4189C12.6146 10.5024 12.579 10.5954 12.5092 10.6679C12.5366 10.6091 12.5694 10.553 12.5995 10.4969C12.6077 10.4818 12.6283 10.4668 12.5995 10.4463C12.5216 10.3916 12.5229 10.3902 12.4614 10.4654C12.4559 10.4723 12.4504 10.4805 12.4381 10.475C12.4422 10.4476 12.4614 10.4271 12.4778 10.408C12.5216 10.3574 12.5284 10.2985 12.5311 10.237C12.5325 10.1891 12.5106 10.2342 12.4997 10.2288C12.4956 10.2329 12.4901 10.237 12.486 10.2411C12.4463 10.2712 12.3971 10.2671 12.3492 10.2698C12.3027 10.3423 12.2562 10.4134 12.2097 10.4859C12.2083 10.4887 12.2056 10.4914 12.2042 10.4941C12.2028 10.4969 12.2001 10.4996 12.1987 10.5024C12.185 10.5338 12.1727 10.5639 12.1618 10.5913C12.144 10.6337 12.1303 10.6706 12.118 10.7048C12.092 10.7801 12.0783 10.8375 12.0756 10.8881C12.0742 10.9237 12.077 10.9579 12.0852 10.9935C12.1317 10.8991 12.1741 10.8074 12.2452 10.7322C12.1317 10.9155 12.0387 11.1056 12.0428 11.3286C12.1002 11.2137 12.1549 11.0988 12.2466 11.0058C12.0742 11.252 11.9662 11.5133 12.0291 11.832C12.0496 11.7937 12.066 11.7623 12.0824 11.7308C12.0852 11.7267 12.0865 11.7212 12.0893 11.7171C12.1098 11.6583 12.1385 11.6022 12.1796 11.5516C12.1413 11.6255 12.1604 11.7034 12.1618 11.7787C12.1659 11.843 12.2151 11.8225 12.2507 11.8252Z" fill="#53A372"/>
<path d="M13.0881 11.1007C13.1264 11.0966 13.1442 11.0637 13.1552 11.0309C13.1579 11.0213 13.1606 11.0118 13.1634 11.0022C13.1989 10.8668 13.1839 10.7354 13.1155 10.6096C13.1073 10.5959 13.0991 10.5822 13.0854 10.574C13.0744 10.5672 13.0621 10.5631 13.0471 10.5658H13.0457C13.0129 10.6246 12.9814 10.6821 12.9486 10.7409C12.9486 10.7436 12.9486 10.745 12.9486 10.7477C12.9472 10.8517 12.9582 10.9529 13.0102 11.0446C13.0266 11.0733 13.0485 11.1048 13.0881 11.1007Z" fill="#53A372"/>
<path d="M12.7282 11.3978C12.7734 11.3937 12.7884 11.3554 12.8021 11.3184C12.8459 11.2049 12.7884 11.1091 12.7488 11.0093C12.746 11.012 12.7419 11.0161 12.7378 11.0189C12.6913 11.0626 12.6448 11.1064 12.5983 11.1502C12.5983 11.1502 12.5983 11.1502 12.5969 11.1515C12.601 11.2158 12.6161 11.2774 12.6475 11.3335C12.6667 11.365 12.6858 11.4019 12.7282 11.3978Z" fill="#53A372"/>
<path d="M12.9711 11.0299C12.9287 10.9561 12.9437 10.8671 12.9068 10.7905C12.9027 10.796 12.8986 10.8028 12.8931 10.8083C12.8534 10.863 12.8124 10.9191 12.7727 10.9738C12.7727 10.9752 12.7727 10.9752 12.7727 10.9766C12.7727 11.0477 12.7946 11.1134 12.8329 11.1736C12.8767 11.242 12.9287 11.2379 12.9656 11.1654C12.9875 11.1216 12.9984 11.0778 12.9711 11.0299Z" fill="#53A372"/>
<path d="M13.49 11.1597C13.4695 11.1542 13.4503 11.1556 13.4325 11.1597C13.4202 11.1624 13.4065 11.1665 13.3942 11.1706C13.3915 11.1802 13.3888 11.1912 13.386 11.2007C13.3765 11.239 13.3655 11.276 13.36 11.3143C13.3532 11.3717 13.371 11.4292 13.4257 11.4524C13.4873 11.4784 13.5146 11.4251 13.5379 11.3799C13.5789 11.2965 13.5953 11.2103 13.5816 11.1118C13.5474 11.1296 13.5283 11.1706 13.49 11.1597Z" fill="#53A372"/>
<path d="M13.3914 11.1704C13.3914 11.1704 13.3878 11.174 13.3914 11.1704C13.3878 11.174 13.3878 11.174 13.3914 11.1704C13.3914 11.174 13.3914 11.174 13.3914 11.1704Z" fill="#53A372"/>
<path d="M13.0854 11.491C13.084 11.4759 13.0786 11.465 13.0635 11.4595C13.0279 11.4445 13.0102 11.4116 12.9746 11.3774C12.9582 11.4472 12.9376 11.5047 12.8706 11.5279C12.8569 11.532 12.8597 11.5457 12.861 11.5566C12.872 11.61 12.8898 11.662 12.9294 11.703C12.9691 11.7441 13.0115 11.7413 13.0416 11.6934C13.0813 11.6319 13.0895 11.5621 13.0854 11.491Z" fill="#53A372"/>
<path d="M13.3472 11.3853C13.3075 11.4441 13.2883 11.5152 13.2062 11.5152C13.1926 11.5152 13.1926 11.533 13.1939 11.5426C13.2008 11.5959 13.2062 11.6506 13.2363 11.6985C13.2528 11.7231 13.2746 11.7382 13.3047 11.7327C13.3772 11.7231 13.4566 11.5412 13.4101 11.4837C13.3868 11.455 13.3636 11.4263 13.3472 11.3853Z" fill="#53A372"/>
<path d="M12.6629 11.4036C12.626 11.3283 12.6068 11.2476 12.5712 11.1724C12.5685 11.1737 12.5671 11.1751 12.5644 11.1765C12.5411 11.1888 12.5179 11.1997 12.4946 11.212C12.4933 11.212 12.4919 11.2134 12.4905 11.2134C12.4632 11.2257 12.4467 11.2435 12.4522 11.275C12.4632 11.342 12.4755 11.409 12.511 11.4678C12.5316 11.502 12.5576 11.5376 12.6027 11.5185C12.6506 11.5007 12.682 11.4405 12.6629 11.4036Z" fill="#53A372"/>
<path d="M12.8515 11.4792C12.8925 11.501 12.9199 11.4737 12.9363 11.4367C12.9636 11.3738 12.9746 11.3082 12.9609 11.2274C12.9171 11.2671 12.8788 11.2493 12.8337 11.2192C12.8296 11.2822 12.8159 11.3287 12.7981 11.3752C12.7776 11.4272 12.8145 11.4586 12.8515 11.4792Z" fill="#53A372"/>
<path d="M13.2845 11.4389C13.3269 11.3814 13.3461 11.3158 13.3557 11.231C13.3434 11.2378 13.3297 11.2446 13.3174 11.2501C13.2873 11.2652 13.2585 11.2802 13.2353 11.2994C13.2107 11.3199 13.1915 11.3445 13.1819 11.3814C13.1737 11.4143 13.1601 11.443 13.1956 11.4635C13.2326 11.4868 13.2626 11.4676 13.2845 11.4389Z" fill="#53A372"/>
<path d="M12.6835 9.41065C12.6698 9.44895 12.6589 9.48862 12.6507 9.52966C12.6466 9.55155 12.6398 9.57617 12.663 9.59122C12.6863 9.60627 12.7082 9.58985 12.7246 9.5748C12.767 9.53787 12.808 9.49956 12.8491 9.46126C12.8956 9.40244 12.901 9.32993 12.9175 9.26017C12.9421 9.15483 12.9858 9.05771 13.0433 8.96058C13.057 8.97973 13.0488 8.98931 13.0433 8.99888C12.9941 9.09601 12.9489 9.19587 12.927 9.30394C12.9229 9.32173 12.9161 9.34225 12.9339 9.35456C12.9571 9.37097 12.9708 9.34772 12.9845 9.33404C13.0187 9.29847 13.0515 9.26154 13.0843 9.2246C13.0679 9.27932 13.0474 9.32993 13.0419 9.38329C13.0406 9.39833 13.0351 9.41748 13.0542 9.42569C13.0679 9.43116 13.0802 9.42022 13.0912 9.41201C13.1131 9.3956 13.1322 9.37645 13.1609 9.35319C13.1418 9.41338 13.1268 9.45989 13.1131 9.50777C13.109 9.52008 13.109 9.5365 13.1226 9.54471C13.1363 9.55428 13.15 9.54471 13.1596 9.5365C13.1801 9.51872 13.2006 9.50093 13.2184 9.48041C13.2854 9.40381 13.3484 9.32583 13.3757 9.23418C13.3908 9.18493 13.3935 9.13158 13.3812 9.07139C13.3812 9.06865 13.3798 9.06728 13.3798 9.06455C13.3744 9.04813 13.3703 9.03035 13.3661 9.01393C13.3566 8.97563 13.3484 8.93869 13.3278 8.90313C13.2608 8.79095 13.1309 8.78274 13.046 8.88261C12.9858 8.95374 12.9161 9.01667 12.8367 9.06592C12.8367 9.07002 12.8367 9.07549 12.8354 9.0796C12.8326 9.10422 12.8203 9.12611 12.808 9.14799C12.8012 9.16167 12.793 9.17535 12.7861 9.18903C12.7478 9.26154 12.7109 9.33404 12.6835 9.41065Z" fill="#53A372"/>
<path d="M13.3713 8.58902C13.3261 8.54935 13.2058 8.58081 13.188 8.63827C13.1647 8.71214 13.2235 8.79148 13.307 8.79285C13.374 8.79422 13.3918 8.7737 13.3836 8.7053C13.3809 8.68067 13.3822 8.65468 13.385 8.63006C13.3877 8.61364 13.3863 8.60133 13.3713 8.58902Z" fill="#53A372"/>
<path d="M13.5249 8.59721C13.4428 8.59585 13.3977 8.62457 13.3977 8.67519C13.3977 8.73401 13.4552 8.7901 13.5195 8.80104C13.5263 8.80241 13.5345 8.80378 13.5413 8.80241C13.5701 8.80241 13.5947 8.7942 13.6084 8.78326C13.6166 8.77642 13.6207 8.76821 13.6207 8.75864C13.6179 8.71896 13.5468 8.59721 13.5249 8.59721Z" fill="#53A372"/>
<path d="M13.4949 8.58117C13.5072 8.57844 13.5182 8.5716 13.5168 8.55245C13.5113 8.48405 13.4648 8.43754 13.3909 8.43343C13.3745 8.44574 13.339 8.40744 13.3253 8.44574C13.313 8.47858 13.3212 8.51414 13.3444 8.5415C13.3868 8.59349 13.4388 8.59485 13.4949 8.58117Z" fill="#53A372"/>
<path d="M13.1479 8.50287C13.1561 8.53844 13.1862 8.55212 13.2177 8.55759C13.2464 8.56169 13.2888 8.57264 13.2997 8.54802C13.3162 8.51108 13.3052 8.4591 13.2792 8.43037C13.2601 8.40848 13.2149 8.39343 13.1821 8.429C13.1698 8.44131 13.163 8.46046 13.1438 8.4632V8.46457C13.1452 8.47688 13.1438 8.49056 13.1479 8.50287Z" fill="#53A372"/>
<path d="M12.482 10.2283C12.4834 10.2283 12.4847 10.2283 12.4847 10.2269C12.5778 10.1503 12.5805 10.0244 12.6421 9.93005C12.6489 9.91911 12.6489 9.90816 12.638 9.89996C12.5572 9.8425 12.5873 9.76453 12.6106 9.69613C12.6352 9.62636 12.6256 9.55659 12.627 9.48683C12.627 9.47999 12.627 9.47315 12.6284 9.46631C12.627 9.46904 12.6243 9.47315 12.6229 9.47588C12.6161 9.48546 12.6106 9.4964 12.6038 9.50598C12.4971 9.65372 12.4177 9.81377 12.3767 9.98887C12.3685 10.0244 12.3616 10.0586 12.3562 10.0956C12.3384 10.2201 12.378 10.2611 12.482 10.2283Z" fill="#53A372"/>
<path d="M12.8409 9.46228C12.8409 9.49101 12.8135 9.50332 12.804 9.52521C12.7821 9.57172 12.7793 9.61823 12.8067 9.662C12.8327 9.70304 12.8669 9.66611 12.9011 9.66064C12.8847 9.70031 12.8354 9.68663 12.8231 9.71399C12.7848 9.79196 12.7602 9.87541 12.7793 9.96433C12.7862 9.99716 12.8163 10.0054 12.8436 9.99169C12.8792 9.9739 12.912 9.94928 12.9189 9.90824C12.9326 9.82753 12.9804 9.74955 12.9572 9.66884C12.9326 9.57856 13.0105 9.52247 13.0092 9.4445C13.0078 9.4103 13.0215 9.37473 13.0119 9.33643C12.9517 9.37883 12.8902 9.41166 12.8409 9.46228Z" fill="#53A372"/>
<path d="M12.8434 9.46508C12.8434 9.46151 12.8434 9.46151 12.8434 9.46508C12.8434 9.46151 12.8434 9.46151 12.8434 9.46508C12.8434 9.46151 12.8434 9.46151 12.8434 9.46508C12.8434 9.46508 12.8398 9.46508 12.8434 9.46508Z" fill="#53A372"/>
<path d="M13.1005 9.44189C13.0731 9.44873 13.0444 9.45147 13.0334 9.48157C13.0088 9.5527 12.9828 9.62247 12.9883 9.70044C12.9897 9.7278 12.9938 9.7579 13.0211 9.77021C13.0512 9.78526 13.0731 9.76337 13.0936 9.74559C13.1661 9.67992 13.2072 9.59648 13.2441 9.50209C13.1921 9.51987 13.1702 9.59784 13.1141 9.56638C13.0704 9.54039 13.1059 9.48567 13.1005 9.44189Z" fill="#53A372"/>
<path d="M12.7246 9.86157C12.7282 9.85799 12.7282 9.85799 12.7246 9.86157C12.7282 9.85799 12.7282 9.85799 12.7246 9.86157C12.7282 9.85799 12.7282 9.85799 12.7246 9.86157C12.7282 9.85799 12.7282 9.85799 12.7246 9.86157C12.7282 9.85799 12.7282 9.85799 12.7246 9.86157Z" fill="#53A372"/>
<path d="M12.7677 9.57568C12.6788 9.60304 12.6323 9.6646 12.62 9.75762C12.6063 9.85885 12.6309 9.88485 12.7253 9.85885C12.8142 9.77267 12.8087 9.67555 12.7677 9.57568Z" fill="#53A372"/>
<path d="M12.3547 10.2717C12.3547 10.2717 12.3547 10.2681 12.3547 10.2717C12.3547 10.2681 12.3547 10.2681 12.3547 10.2717C12.3512 10.2681 12.3512 10.2717 12.3547 10.2717Z" fill="#53A372"/>
<path d="M12.3549 10.2516C12.3481 10.2037 12.3426 10.1544 12.3357 10.1011C12.3289 10.1107 12.3207 10.1202 12.3139 10.1298C12.2632 10.2037 12.2304 10.2899 12.2263 10.3555C12.2249 10.3801 12.2263 10.4007 12.2331 10.4171C12.2345 10.4157 12.2359 10.4143 12.2373 10.413C12.281 10.3678 12.3002 10.3022 12.3563 10.268C12.3563 10.2639 12.3549 10.2584 12.3549 10.2516Z" fill="#53A372"/>
<path d="M13.3524 11.8353C13.3524 11.8329 13.3524 11.8329 13.3524 11.8306C13.35 11.8306 13.35 11.8306 13.3477 11.8306C13.35 11.8329 13.3524 11.8353 13.3524 11.8353Z" fill="#4E4E4E"/>
<path d="M12.0941 11.7376C12.0927 11.7308 12.0927 11.7239 12.0914 11.7171C12.0886 11.7212 12.0872 11.7267 12.0845 11.7308C12.0681 11.7622 12.0517 11.7937 12.0312 11.832C11.9682 11.5133 12.0763 11.252 12.2487 11.0057C12.157 11.0988 12.1023 11.2137 12.0448 11.3286C12.0407 11.1056 12.1338 10.9155 12.2473 10.7321C12.1762 10.8074 12.1338 10.8977 12.0872 10.9934C12.079 10.9579 12.0763 10.925 12.0777 10.8881C12.0804 10.8375 12.0927 10.78 12.1201 10.7048C12.1324 10.6706 12.1461 10.6336 12.1639 10.5912C12.1748 10.5639 12.1871 10.5338 12.2008 10.5023C12.2022 10.4996 12.2049 10.4969 12.2063 10.4941C12.2076 10.4914 12.2104 10.4886 12.2117 10.4859C12.2582 10.4134 12.3048 10.3423 12.3513 10.2698C12.3991 10.267 12.4484 10.2711 12.4881 10.241C12.4922 10.2369 12.4976 10.2342 12.5017 10.2287C12.5113 10.2328 12.5346 10.1877 12.5332 10.2369C12.5305 10.2985 12.5236 10.3587 12.4799 10.4079C12.4634 10.4271 12.4443 10.4476 12.4402 10.475C12.4525 10.4791 12.458 10.4709 12.4634 10.4654C12.525 10.3902 12.5236 10.3915 12.6016 10.4462C12.6303 10.4668 12.6098 10.4818 12.6016 10.4969C12.5715 10.5543 12.5387 10.609 12.5113 10.6678C12.5811 10.5967 12.6153 10.5023 12.6673 10.4189C12.6714 10.4161 12.6741 10.4148 12.6782 10.412C12.6892 10.4052 12.7015 10.3984 12.7151 10.3888C12.711 10.4613 12.6809 10.5434 12.7384 10.5871C12.8068 10.6391 12.7794 10.6788 12.7535 10.728C12.737 10.7581 12.722 10.7882 12.7056 10.8183C12.6905 10.8443 12.6727 10.8703 12.6563 10.8963C12.6782 10.8936 12.6864 10.8826 12.6946 10.8717C12.763 10.7704 12.8027 10.6487 12.882 10.5543C12.8834 10.5529 12.8848 10.5516 12.8861 10.5502C12.8944 10.5406 12.9026 10.5311 12.9121 10.5228C12.9135 10.5215 12.9162 10.5187 12.9176 10.5174C12.9258 10.5105 12.934 10.5037 12.9422 10.4969C12.9436 10.4955 12.9436 10.4927 12.945 10.49C12.9436 10.4886 12.9422 10.4886 12.9422 10.4873C12.9436 10.4886 12.945 10.4886 12.945 10.49C12.9669 10.4613 12.9887 10.4312 13.0065 10.4011C13.0394 10.3477 13.0667 10.2917 13.0886 10.2328C13.1173 10.1535 13.1324 10.0714 13.1351 9.98249C13.1365 9.92777 13.1474 9.88126 13.1721 9.83338C13.2008 9.77867 13.235 9.72531 13.2391 9.66102C13.1789 9.79098 13.1132 9.9182 13.0188 10.0454C13.0722 10.0235 13.079 9.97839 13.1105 9.95787C13.1242 9.97018 13.1187 9.98386 13.1173 9.99617C13.1173 10.014 13.1146 10.0317 13.1119 10.0509C13.09 10.2096 13.0161 10.3477 12.9368 10.4832C12.9381 10.4845 12.9395 10.4845 12.9395 10.4859C12.9381 10.4845 12.9368 10.4845 12.9368 10.4832C12.9162 10.5037 12.8957 10.5242 12.8738 10.5447C12.8465 10.5721 12.8164 10.6049 12.7753 10.5899C12.7316 10.5735 12.7357 10.5283 12.7343 10.49C12.7302 10.3327 12.7931 10.1945 12.8629 10.0605C12.8656 10.0564 12.867 10.0523 12.8697 10.0468C12.882 10.0345 12.8848 10.0126 12.9053 10.0085C12.9272 10.1029 12.9395 10.1138 13.0134 10.0687C13.0134 10.0687 13.0147 10.0687 13.0147 10.0673H13.0134C12.9313 10.0865 12.9272 10.0413 12.9313 9.99481C12.9354 9.94966 12.9463 9.90589 12.9545 9.86074C12.9628 9.81286 12.9682 9.77456 13.0394 9.78414C13.0872 9.79098 13.1214 9.74173 13.1515 9.70479C13.2063 9.63503 13.2473 9.55569 13.2719 9.47087C13.2883 9.41478 13.3239 9.36964 13.3554 9.32313C13.3636 9.31082 13.369 9.30808 13.3718 9.31219C13.3759 9.31629 13.3759 9.32997 13.3772 9.33681C13.3759 9.34228 13.3759 9.34775 13.3745 9.35186C13.3704 9.37922 13.3649 9.40521 13.3595 9.43257C13.3472 9.50097 13.3321 9.56937 13.3171 9.63776C13.2993 9.71437 13.2774 9.79098 13.2528 9.86622C13.1283 10.2369 12.9573 10.5844 12.7165 10.8963C12.7056 10.91 12.696 10.9264 12.6864 10.9414C12.7179 10.9373 12.7288 10.91 12.7452 10.8895C12.9026 10.6884 13.0257 10.4654 13.131 10.2328C13.2145 10.0482 13.2815 9.85801 13.3335 9.65828C13.3362 9.64597 13.3403 9.63366 13.343 9.62135C13.3581 9.6405 13.3526 9.65692 13.3526 9.67333C13.3554 9.65965 13.3581 9.64734 13.3608 9.63366C13.3772 9.53653 13.3786 9.43667 13.3909 9.33818C13.3978 9.24789 13.4019 9.15624 13.3909 9.06595C13.3868 9.06595 13.3814 9.06595 13.3772 9.06595C13.3772 9.06869 13.3786 9.07005 13.3786 9.07279C13.3909 9.13298 13.3868 9.18633 13.3731 9.23558C13.3458 9.32723 13.2829 9.40521 13.2158 9.48181C13.198 9.50233 13.1775 9.52012 13.157 9.5379C13.1474 9.54611 13.1337 9.55569 13.1201 9.54611C13.1064 9.5379 13.1064 9.52149 13.1105 9.50917C13.1242 9.4613 13.1392 9.41478 13.1584 9.35459C13.1296 9.37922 13.1105 9.397 13.0886 9.41342C13.0777 9.42162 13.0667 9.43257 13.0517 9.4271C13.0325 9.41889 13.038 9.39974 13.0394 9.38469C13.0462 9.32997 13.0654 9.28072 13.0818 9.226C13.0489 9.26294 13.0161 9.29987 12.9819 9.33544C12.9696 9.34912 12.9545 9.37238 12.9313 9.35596C12.9135 9.34365 12.9217 9.32313 12.9244 9.30535C12.9463 9.19728 12.9915 9.09878 13.0407 9.00029C13.0448 8.99071 13.0544 8.98114 13.0407 8.96198C12.9833 9.05911 12.9409 9.15624 12.9149 9.26157C12.8985 9.33134 12.893 9.40384 12.8465 9.46266C12.8957 9.41342 12.9573 9.38058 13.0175 9.33681C13.027 9.37648 13.0147 9.41068 13.0147 9.44488C13.0161 9.52149 12.9381 9.57894 12.9628 9.66923C12.9846 9.74994 12.9368 9.82791 12.9244 9.90862C12.9176 9.94966 12.8848 9.97429 12.8492 9.99207C12.8205 10.0057 12.7918 9.99754 12.7849 9.96471C12.7658 9.87579 12.7904 9.79371 12.8287 9.71437C12.841 9.68838 12.8903 9.70069 12.9067 9.66102C12.8725 9.66786 12.8383 9.70343 12.8123 9.66239C12.7849 9.61861 12.7877 9.5721 12.8095 9.52559C12.8205 9.5037 12.8465 9.49139 12.8465 9.46266C12.8054 9.50097 12.7644 9.53927 12.722 9.57621C12.7056 9.58988 12.6851 9.60767 12.6604 9.59262C12.6372 9.57757 12.644 9.55295 12.6481 9.53106C12.6563 9.49002 12.6673 9.45035 12.681 9.41205C12.7083 9.33544 12.7452 9.26294 12.7835 9.1918C12.7904 9.17812 12.7986 9.16444 12.8054 9.15076C12.8177 9.12888 12.8287 9.10699 12.8328 9.08237C12.8328 9.07826 12.8342 9.07416 12.8342 9.06869C12.8287 9.06869 12.8232 9.06732 12.8177 9.06732C12.8177 9.06732 12.8177 9.06732 12.8164 9.06732C12.8041 9.07553 12.7904 9.08373 12.7781 9.09194C12.7781 9.09194 12.7767 9.09194 12.7767 9.09331C12.7712 9.09605 12.7671 9.09878 12.7617 9.10152C12.7425 9.10836 12.7261 9.11793 12.711 9.13025C12.6331 9.17265 12.551 9.20138 12.4566 9.19317C12.3677 9.18496 12.2993 9.14392 12.2391 9.07279C12.2993 9.0509 12.3513 9.02901 12.3991 8.99755C12.4251 8.97977 12.4498 8.98934 12.4771 8.99208C12.6167 9.01123 12.7384 8.96746 12.8437 8.8758H12.8451C12.9012 8.85391 12.9477 8.81835 12.9805 8.76773C13.0188 8.76363 13.0298 8.71712 13.0722 8.70891C13.0886 8.78962 13.0558 8.84981 13.0024 8.90179C12.9422 8.95925 12.8779 9.0126 12.8164 9.06869C12.8219 9.06869 12.8273 9.07005 12.8328 9.07005C12.9135 9.02081 12.9819 8.95788 13.0421 8.88675C13.1269 8.78688 13.2555 8.79509 13.3239 8.90727C13.3444 8.94146 13.354 8.97977 13.3622 9.01807C13.3663 9.03585 13.3704 9.05227 13.3759 9.06869C13.38 9.06869 13.3855 9.06869 13.3896 9.06869C13.3772 9.02081 13.3841 8.98524 13.4388 8.96609C13.4689 8.95514 13.4826 8.92231 13.4949 8.89085C13.5058 8.86349 13.4853 8.81014 13.5496 8.82245C13.5865 8.82929 13.6207 8.78552 13.6522 8.8033C13.7548 8.85802 13.8314 8.83066 13.8943 8.73627C13.9053 8.75679 13.9149 8.7691 13.9203 8.78415C14.1173 9.2602 14.1543 9.7472 14.0257 10.2465C13.9915 10.3819 13.9203 10.501 13.8684 10.6295C13.8164 10.702 13.763 10.7759 13.711 10.8484C13.7904 10.7937 13.8328 10.713 13.8684 10.6282C13.9545 10.5283 13.9928 10.4052 14.0325 10.2834C14.1419 9.95103 14.1351 9.6104 14.0831 9.26978C14.0393 8.98524 13.9313 8.72122 13.7958 8.46815C13.7822 8.44215 13.7685 8.41206 13.7767 8.37376C13.8369 8.39701 13.8916 8.44489 13.9518 8.42574C14.0612 8.39291 14.0941 8.45173 14.1146 8.53791C14.1146 8.54065 14.1214 8.54202 14.1255 8.54338C14.1611 8.47635 14.1844 8.40522 14.1967 8.32998C14.2254 8.15351 14.172 8.06596 14.0051 8.01671C13.9723 8.00714 13.9573 7.99072 13.9491 7.95789C13.9176 7.83614 13.8396 7.75406 13.722 7.71439C13.4963 7.63778 13.2829 7.65694 13.0886 7.80605C12.8875 7.95926 12.7234 8.15898 12.4853 8.27116C12.551 8.30125 12.6153 8.28347 12.6851 8.29715C12.6139 8.3505 12.5442 8.38333 12.4634 8.39838C12.4812 8.43531 12.5058 8.45994 12.5346 8.47772C12.5838 8.50918 12.5619 8.5256 12.5277 8.54749C12.4648 8.58716 12.3978 8.61862 12.3198 8.63777C12.3499 8.68155 12.3827 8.71301 12.421 8.73764C12.4388 8.74858 12.4511 8.75952 12.4306 8.77868C12.3745 8.80193 12.3225 8.83476 12.2541 8.8416C12.2829 8.88948 12.3171 8.92231 12.3581 8.94557C12.406 8.97293 12.3882 8.98661 12.3526 9.00576C12.3075 9.03038 12.2569 9.04406 12.2035 9.06048C12.2569 9.13572 12.3225 9.1836 12.4074 9.20685C12.4935 9.23148 12.5756 9.20412 12.6632 9.18223C12.6413 9.2178 12.6235 9.24652 12.6057 9.27525C12.6741 9.23284 12.7015 9.14666 12.7767 9.11246C12.7904 9.11383 12.7986 9.12204 12.7904 9.13435C12.7234 9.23832 12.6933 9.36143 12.6221 9.46403C12.5346 9.55295 12.4812 9.66376 12.4279 9.77319C12.3773 9.87579 12.3704 9.99344 12.3075 10.0906C12.2295 10.2137 12.1789 10.345 12.1898 10.4941C12.1214 10.6131 12.0763 10.7404 12.053 10.8758C12.0503 10.8183 12.0489 10.7609 12.0558 10.7048C12.1078 10.3094 12.2446 9.94145 12.4292 9.58988C12.4716 9.50917 12.5318 9.43941 12.5565 9.35049C12.5305 9.37101 12.5182 9.4011 12.5017 9.4271C12.3294 9.713 12.1967 10.0167 12.1091 10.3395C12.0517 10.5502 12.0052 10.765 12.0366 10.9866C12.0599 11.1507 12.023 11.3122 12.0093 11.4736C11.997 11.6145 11.9901 11.7527 12.0339 11.8922C12.0544 11.8375 12.0749 11.7882 12.0941 11.7376ZM13.0284 9.48045C13.0394 9.45035 13.0681 9.44762 13.0954 9.44078C13.1023 9.48592 13.0654 9.54064 13.1091 9.56389C13.1652 9.59536 13.1871 9.51738 13.2391 9.4996C13.2021 9.59399 13.1611 9.6788 13.0886 9.7431C13.0681 9.76088 13.0462 9.78277 13.0161 9.76772C12.9887 9.75404 12.9846 9.72531 12.9833 9.69795C12.9778 9.62135 13.0024 9.55021 13.0284 9.48045ZM13.1721 8.73627C13.1762 8.74721 13.1789 8.75952 13.1625 8.76363C13.142 8.76773 13.1201 8.77184 13.1064 8.75132C13.0968 8.73627 13.0941 8.71712 13.09 8.70344C13.0968 8.65145 13.1324 8.61452 13.1461 8.56938C13.1488 8.55843 13.1584 8.55706 13.1679 8.56254C13.1789 8.56938 13.183 8.57895 13.1775 8.59126C13.1529 8.63914 13.1515 8.68702 13.1721 8.73627ZM13.183 8.63777C13.2008 8.58032 13.3225 8.55022 13.3663 8.58853C13.38 8.60084 13.3827 8.61315 13.38 8.62957C13.3772 8.65419 13.3759 8.68018 13.3786 8.70481C13.3868 8.77184 13.369 8.79372 13.302 8.79236C13.2186 8.78962 13.1597 8.71164 13.183 8.63777ZM13.5182 8.55433C13.5195 8.57348 13.5086 8.58032 13.4963 8.58306C13.4402 8.59674 13.3868 8.594 13.3472 8.54475C13.3239 8.51602 13.3157 8.48183 13.328 8.44899C13.3417 8.40932 13.3772 8.44899 13.3937 8.43668C13.4662 8.43942 13.5113 8.48456 13.5182 8.55433ZM13.5715 8.43121C13.6112 8.423 13.6522 8.41753 13.6905 8.40522C13.7521 8.3847 13.763 8.41616 13.7617 8.46678C13.763 8.52697 13.7288 8.5639 13.6741 8.58032C13.6166 8.59673 13.5647 8.58032 13.5305 8.5297C13.4949 8.48046 13.5113 8.44352 13.5715 8.43121ZM13.4333 8.9442C13.4156 8.95788 13.3991 8.96746 13.3855 8.96472C13.3745 8.96198 13.3649 8.95104 13.3567 8.92778C13.3417 8.88264 13.3075 8.84707 13.2623 8.80877C13.3184 8.80467 13.3595 8.8033 13.4005 8.78552C13.4402 8.7691 13.4703 8.79783 13.4757 8.84023C13.4757 8.84571 13.4771 8.84981 13.4771 8.85528C13.4757 8.89085 13.4607 8.92095 13.4333 8.9442ZM13.6057 8.78415C13.592 8.79646 13.5674 8.8033 13.5387 8.8033C13.5305 8.8033 13.5236 8.80193 13.5168 8.80193C13.4525 8.79099 13.395 8.7349 13.395 8.67608C13.395 8.62409 13.4402 8.59673 13.5223 8.5981C13.5441 8.5981 13.6153 8.71985 13.618 8.76089C13.618 8.76773 13.6125 8.77594 13.6057 8.78415ZM13.8629 8.7349C13.8533 8.75952 13.8369 8.77731 13.8109 8.79236C13.7644 8.81835 13.7015 8.81151 13.6632 8.78004C13.6577 8.77594 13.6536 8.77047 13.6495 8.76636C13.6399 8.75405 13.6249 8.74037 13.6317 8.72532C13.6413 8.70481 13.6591 8.71985 13.6741 8.72259C13.7589 8.73353 13.8095 8.68565 13.8533 8.61315C13.8725 8.66103 13.8752 8.70207 13.8629 8.7349ZM13.7876 8.4914C13.8437 8.56938 13.8342 8.63777 13.7685 8.68018C13.7138 8.71575 13.6249 8.69933 13.5934 8.64598C13.5838 8.6282 13.5619 8.5981 13.6071 8.60221C13.6933 8.60905 13.7575 8.58442 13.7876 8.4914ZM14.0311 8.38196C14.0188 8.41069 13.9819 8.40659 13.9463 8.40795C13.8779 8.40111 13.8123 8.37786 13.7658 8.31904C13.7398 8.2862 13.7288 8.24927 13.7644 8.21507C13.7986 8.1795 13.8191 8.2137 13.8437 8.23285C13.8889 8.26842 13.9491 8.27663 13.9901 8.31904C14.0079 8.33819 14.0448 8.35324 14.0311 8.38196ZM14.1707 8.34229C14.1611 8.39017 14.1502 8.43805 14.1214 8.4873C14.0763 8.36418 14.0024 8.278 13.882 8.23012C13.815 8.20413 13.7931 8.1371 13.8136 8.07827C13.8383 8.00987 13.8916 8.01398 13.9491 8.02492C14.1474 8.05775 14.2076 8.14394 14.1707 8.34229ZM12.5524 8.26021C12.7753 8.12615 12.934 7.93464 13.1351 7.7951C13.3362 7.65694 13.5524 7.65283 13.7712 7.75543C13.8684 7.80194 13.9176 7.88539 13.9368 7.99072C13.8027 8.00714 13.7917 8.01808 13.7876 8.15214C13.7863 8.1754 13.7753 8.18224 13.7603 8.19318C13.7192 8.22328 13.7069 8.26705 13.737 8.30672C13.7767 8.36008 13.7425 8.37102 13.7028 8.38059C13.4238 8.45036 13.1597 8.42027 12.9203 8.25611C12.8738 8.22465 12.8383 8.21644 12.7849 8.23969C12.7165 8.26842 12.6426 8.27936 12.5524 8.26021ZM12.2938 8.85255C12.3417 8.83066 12.395 8.81835 12.4361 8.78415C12.4375 8.78415 12.4375 8.78278 12.4388 8.78278C12.4662 8.76636 12.4922 8.77047 12.5223 8.77731C12.6604 8.80877 12.7808 8.7691 12.8889 8.68155C12.8889 8.68155 12.8875 8.68155 12.8875 8.68018C12.8369 8.68976 12.7972 8.72396 12.7493 8.74037C12.5934 8.79646 12.4662 8.76773 12.3581 8.64461C12.4375 8.61725 12.5113 8.58032 12.5784 8.5297C12.6016 8.51192 12.6208 8.5256 12.6413 8.53107C12.8041 8.57622 12.9409 8.5256 13.064 8.42027C12.997 8.44079 12.9436 8.4873 12.8766 8.50918C12.7411 8.55159 12.6221 8.53518 12.5195 8.43121C12.5154 8.42711 12.5113 8.42027 12.5086 8.41479C12.5072 8.41343 12.5086 8.41069 12.51 8.40111C12.6208 8.38059 12.7015 8.29168 12.8082 8.25201C12.8451 8.23833 12.8697 8.24106 12.9012 8.26432C12.9477 8.29715 12.9956 8.32998 13.0462 8.3505C13.0941 8.36965 13.0941 8.3888 13.0654 8.42027L13.064 8.42163H13.0654C13.1009 8.4189 13.1255 8.36828 13.1679 8.39975C13.1721 8.423 13.1447 8.43531 13.1461 8.45857C13.1461 8.45857 13.1461 8.45857 13.1474 8.45994C13.1679 8.45583 13.1748 8.43805 13.1857 8.42574C13.2186 8.39154 13.2637 8.40522 13.2829 8.42711C13.3089 8.4572 13.3198 8.50782 13.3034 8.54475C13.2924 8.56938 13.2487 8.5598 13.2213 8.55433C13.1885 8.54886 13.1597 8.53518 13.1515 8.49961C13.1488 8.4873 13.1488 8.47362 13.1488 8.46131V8.45994C13.1488 8.45994 13.1474 8.45994 13.1474 8.46131C13.1283 8.46951 13.1119 8.48046 13.1091 8.50371C13.1091 8.50371 13.1078 8.50371 13.1078 8.50508C13.1064 8.50645 13.105 8.50645 13.1023 8.50782C13.0544 8.53654 13.0106 8.56801 12.986 8.62136C13.0298 8.58989 13.0749 8.5598 13.1037 8.51329C13.105 8.51055 13.1078 8.50782 13.1091 8.50508C13.1474 8.50508 13.1365 8.53244 13.1324 8.55296C13.1201 8.61315 13.0872 8.66103 13.0421 8.7007C13.0216 8.71985 12.9942 8.73353 12.986 8.76363C12.986 8.76363 12.9846 8.76363 12.9846 8.765C12.9327 8.79236 12.8889 8.82792 12.8506 8.8717C12.8506 8.8717 12.8506 8.8717 12.8492 8.87307C12.7781 8.89495 12.7193 8.94283 12.6454 8.96198C12.5017 8.99892 12.3814 8.96472 12.2938 8.85255ZM12.8602 10.0181C12.8615 10.0181 12.8588 10.0304 12.8588 10.0372C12.8547 10.0441 12.8492 10.0495 12.8451 10.0564C12.8424 10.0605 12.841 10.0632 12.8383 10.0673C12.8273 10.0769 12.8191 10.0906 12.8136 10.1042C12.7877 10.1644 12.7589 10.2246 12.7425 10.2889C12.7411 10.293 12.7411 10.2958 12.7398 10.2999C12.7275 10.3286 12.7138 10.356 12.6933 10.3806C12.6864 10.3833 12.6823 10.3888 12.6796 10.3956C12.6768 10.3984 12.6755 10.3997 12.6727 10.4011C12.6714 10.4025 12.67 10.4038 12.6686 10.4052C12.5756 10.4339 12.5373 10.4052 12.5496 10.3026C12.5688 10.1412 12.6153 9.98797 12.7234 9.86074C12.7234 9.86074 12.7234 9.86074 12.7234 9.86211C12.7234 9.86211 12.7234 9.86211 12.7234 9.86074C12.737 9.86348 12.7562 9.8457 12.7562 9.88126C12.7548 9.98797 12.7576 9.98797 12.8602 10.0181ZM12.763 9.57621C12.8041 9.67607 12.8095 9.77319 12.722 9.85801C12.6276 9.884 12.603 9.85801 12.6167 9.75678C12.629 9.66512 12.6741 9.60356 12.763 9.57621ZM12.3554 10.096C12.3608 10.0605 12.3677 10.0249 12.3759 9.98933C12.4169 9.81423 12.4963 9.65418 12.603 9.50644C12.6098 9.49686 12.6167 9.48592 12.6221 9.47634C12.6235 9.47361 12.6262 9.4695 12.6276 9.46677C12.6276 9.47361 12.6276 9.48045 12.6262 9.48729C12.6249 9.55705 12.6344 9.62682 12.6098 9.69659C12.5866 9.76499 12.5565 9.84159 12.6372 9.90041C12.6481 9.90862 12.6481 9.92093 12.6413 9.93051C12.5797 10.0249 12.5784 10.1494 12.484 10.2274C12.4826 10.2274 12.4812 10.2274 12.4812 10.2287C12.3786 10.2602 12.339 10.2192 12.3554 10.096ZM12.2213 10.356C12.2254 10.2903 12.2582 10.2041 12.3089 10.1302C12.3157 10.1207 12.3225 10.1097 12.3307 10.1015C12.3376 10.1549 12.3444 10.2027 12.3499 10.252C12.3513 10.2575 12.3513 10.2643 12.3526 10.2698C12.2952 10.304 12.2774 10.3696 12.2336 10.4148C12.2323 10.4161 12.2309 10.4175 12.2295 10.4189C12.2213 10.4011 12.2199 10.3806 12.2213 10.356Z" fill="#4E4E4E"/>
<path d="M13.4175 8.05525C13.4764 8.08672 13.5393 8.1004 13.6008 8.05525C13.6378 8.05389 13.6528 8.03063 13.6556 7.9978C13.6583 7.96907 13.6378 7.95129 13.6145 7.94034C13.5489 7.90615 13.4818 7.90751 13.4189 7.94308C13.3642 7.97454 13.3642 8.02516 13.4175 8.05525ZM13.449 7.94718C13.4805 7.93214 13.5133 7.92666 13.5475 7.9335C13.6268 7.94855 13.6432 7.98549 13.5995 8.05252C13.5981 8.05115 13.5967 8.04841 13.594 8.04705C13.5954 8.04841 13.5967 8.05115 13.5981 8.05252C13.5475 8.05662 13.4969 8.07714 13.4476 8.04978C13.4271 8.03884 13.408 8.02789 13.4052 8.00054C13.4052 7.97318 13.4257 7.95813 13.449 7.94718Z" fill="#4E4E4E"/>
<path d="M13.5234 8.03021C13.5467 8.02748 13.559 8.0138 13.5617 7.98918C13.5535 7.96455 13.5371 7.95224 13.5111 7.95634C13.4879 7.95908 13.4714 7.97139 13.4742 7.99602C13.4769 8.02337 13.4974 8.03295 13.5234 8.03021Z" fill="#AD48FD"/>
</svg>
