<svg width="28" height="20" viewBox="0 0 28 20" fill="none" xmlns="http://www.w3.org/2000/svg">
<rect x="0.344238" y="0.356934" width="26.9136" height="19.2856" fill="#F2FAFF"/>
<path fill-rule="evenodd" clip-rule="evenodd" d="M0 0H27.6037V19.9999H0V0ZM26.9146 19.2858V0.714451H0.691152V19.2858H26.9146Z" fill="#A3B7CC"/>
<rect x="0.344238" y="17.5" width="26.9136" height="2.14284" fill="#8BB7F0"/>
<path fill-rule="evenodd" clip-rule="evenodd" d="M0 17.1431H27.6037V20.0002H0V17.1431ZM26.9146 19.2861V17.8575H0.691152V19.2861H26.9146Z" fill="#4E7AB5"/>
<rect x="0.344238" y="13.2144" width="26.9136" height="2.14284" fill="#8BB7F0"/>
<path fill-rule="evenodd" clip-rule="evenodd" d="M0 12.8569H27.6037V15.7141H0V12.8569ZM26.9146 14.9997V13.5711H0.691152V14.9997H26.9146Z" fill="#4E7AB5"/>
<rect x="0.344238" y="8.92822" width="26.9136" height="2.14284" fill="#8BB7F0"/>
<path fill-rule="evenodd" clip-rule="evenodd" d="M0 8.57129H27.6037V11.4284H0V8.57129ZM26.9146 10.7141V9.2855H0.691152V10.7141H26.9146Z" fill="#4E7AB5"/>
<rect x="0.344238" y="4.64307" width="26.9136" height="2.14284" fill="#8BB7F0"/>
<path fill-rule="evenodd" clip-rule="evenodd" d="M0 4.28564H27.6037V7.14277H0V4.28564ZM26.9146 6.42853V4.99997H0.691152V6.42853H26.9146Z" fill="#4E7AB5"/>
<rect x="0.344238" y="0.356934" width="26.9136" height="2.14284" fill="#8BB7F0"/>
<path fill-rule="evenodd" clip-rule="evenodd" d="M0 0H27.6037V2.85713H0V0ZM26.9146 2.14301V0.714451H0.691152V2.14301H26.9146Z" fill="#4E7AB5"/>
<rect x="0.344238" y="0.356934" width="10.3514" height="10.7142" fill="#8BB7F0"/>
<path fill-rule="evenodd" clip-rule="evenodd" d="M0 0H11.0415V11.4285H0V0ZM10.3524 10.7144V0.714451H0.691152V10.7144H10.3524Z" fill="#4E7AB5"/>
<path d="M4.48479 11.0712V6.78547H0.344238V4.64262H4.48479V0.356934H6.55506V4.64262H10.6956V6.78547H6.55506V11.0712H4.48479Z" fill="#F2FAFF"/>
<path fill-rule="evenodd" clip-rule="evenodd" d="M4.14055 0H6.90092V4.28569H11.0415V7.14281H6.90092V11.4285H4.14055V7.14281H0V4.28569H4.14055V0ZM6.21189 4.28586V0.714451H4.8317V4.28586V5.00014H4.14161H0.691152V6.4287H4.14161H4.8317V7.14298V10.7144H6.21189V7.14298V6.4287H6.90198H10.3524V5.00014H6.90198H6.21189V4.28586Z" fill="#A3B7CC"/>
<rect x="3.45068" y="10.7144" width="4.83064" height="0.714281" fill="#8BB7F0"/>
<path d="M8.28133 10.7144H3.45068V11.4286H8.28133V10.7144Z" fill="#4E7AB5"/>
<rect x="3.45068" width="4.14055" height="0.714281" fill="#8BB7F0"/>
<path d="M7.59123 0H3.45068V0.714281H7.59123V0Z" fill="#4E7AB5"/>
<path d="M11.0421 3.57129H10.3521V7.85698H11.0421V3.57129Z" fill="#4E7AB5"/>
<path d="M0.690092 3.57129H0V8.15483H0.690092V3.57129Z" fill="#4E7AB5"/>
</svg>
