<svg width="27" height="20" viewBox="0 0 27 20" fill="none" xmlns="http://www.w3.org/2000/svg">
<path d="M0.333252 5H26.3333V15H0.333252V5Z" fill="#FFEEA3"/>
<path fill-rule="evenodd" clip-rule="evenodd" d="M0 4.6665H26.6667V15.3332H0V4.6665ZM26 14.6665V5.33317H0.666667V14.6665H26Z" fill="#F5C276"/>
<path d="M0.333252 0.333496H26.3333V5.00016H0.333252V0.333496Z" fill="#F78F8F"/>
<path fill-rule="evenodd" clip-rule="evenodd" d="M0 0H26.6667V5.33333H0V0ZM26 4.66667V0.666667H0.666667V4.66667H26Z" fill="#C74343"/>
<path d="M0.333252 15H26.3333V19.6667H0.333252V15Z" fill="#F78F8F"/>
<path fill-rule="evenodd" clip-rule="evenodd" d="M6.13133 11.7088C5.90867 11.2822 4.88867 10.0002 4 10.0002V9.3335C5.61333 9.3335 6.63 11.2695 6.67267 11.3515L6.13133 11.7088ZM0 14.6668H26.6667V20.0002H0V14.6668ZM26 19.3335V15.3335H0.666667V19.3335H26ZM10 10.0002C9.11133 10.0002 8.09133 11.2822 7.86867 11.7088L7.32733 11.3515C7.37 11.2695 8.38667 9.3335 10 9.3335V10.0002Z" fill="#C74343"/>
<path fill-rule="evenodd" clip-rule="evenodd" d="M4 8H4.66667V13.3333H4V8ZM9.33333 8H10V13.3333H9.33333V8Z" fill="#C74343"/>
<path d="M6.99275 13.0147C6.51875 13.0147 6.16475 12.898 5.94075 12.6673C5.66475 12.3847 5.66675 12.0127 5.66675 12.0093V9H8.33342V12C8.33342 12.106 8.29342 13.0147 6.99275 13.0147Z" fill="#F78F8F"/>
<path fill-rule="evenodd" clip-rule="evenodd" d="M5.33331 8.6665H8.66665V11.9998C8.66665 11.9998 8.68798 13.3485 6.99265 13.3485C5.29665 13.3485 5.33331 11.9998 5.33331 11.9998V8.6665ZM7.99998 11.9978V9.33317H5.99998V11.9998C6.00398 12.2578 6.13798 12.6818 6.99198 12.6818C7.85331 12.6818 7.99331 12.2532 7.99998 11.9978Z" fill="#C74343"/>
<path d="M8.66659 7.32666L5.33325 7.33333V7.99999L6.66659 9.33333H7.33325L8.66659 7.99999V7.32666Z" fill="#C74343"/>
<path d="M7.00008 6.6665C6.81608 6.6665 6.66675 6.81584 6.66675 6.99984C6.66675 7.18384 6.81608 7.33317 7.00008 7.33317C7.18408 7.33317 7.33341 7.18384 7.33341 6.99984C7.33341 6.81584 7.18408 6.6665 7.00008 6.6665Z" fill="#C74343"/>
</svg>
